<svg width="493" height="464" xmlns="http://www.w3.org/2000/svg" preserveAspectRatio="xMinYMin">

 <g>
  <title>background</title>
  <rect fill="none" id="canvas_background" height="466" width="495" y="-1" x="-1"/>
 </g>
 <g>
  <title>Layer 1</title>
  <rect fill="#ffffff" fill-opacity="0.6" id="rect3165" class="detail-box" ry="2" rx="2" height="40" width="70" y="-54.000008" x="10"/>
  <g id="layer1"/>
  <g transform="rotate(90 247.0000457763672,-2.6821594238281254) matrix(1,0,0,1.002735,0,-1.3656591) " id="g3915">
   <path fill="none" stroke="#c6c6c6" stroke-width="4.14811" d="m714.92594,-248.523324l0,494.45471l-467.90681,0l0,-494.45471l467.90681,0" id="path3117"/>
   <path fill="none" stroke="#c6c6c6" stroke-width="4.029536" d="m714.98523,-248.416264l0,28.15937l-139.49507,0l0,-28.15937l139.49507,0z" id="path3119"/>
   <path fill="none" stroke="#c6c6c6" stroke-width="4.01749" d="m714.99125,217.658926l0,27.98886l-139.50711,0l0,-27.98886l139.50711,0z" id="path3121"/>
   <path fill="none" stroke="#c6c6c6" stroke-width="4.14811" d="m574.71982,-220.316184a236.44227,236.44227 0 0 0 0,438.04042" id="path3123"/>
   <path fill="none" stroke="#c6c6c6" stroke-width="4.14811" d="m714.92594,-80.939684l-189.15382,0l0,159.28742l189.15382,0l0,-159.28742z" id="path3125"/>
   <path fill="none" stroke="#c6c6c6" stroke-width="4.14811" d="m714.92594,-61.028754l-189.15382,0l0,119.46557l189.15382,0l0,-119.46557z" id="path3127"/>
   <path fill="none" stroke="#c6c6c6" stroke-width="4.14811" d="m525.77212,-61.028754a59.73278,59.73278 0 1 0 0,119.46557a59.73278,59.73278 0 0 0 0,-119.46557z" id="path3129"/>
   <path fill="none" stroke="#c6c6c6" stroke-width="4.14811" d="m247.01913,-61.028754a59.73278,59.73278 0 0 1 0,119.46557l0,-59.73279l0,-59.73278z" id="path3131"/>
   <path fill="none" stroke="#c6c6c6" stroke-width="4.14811" d="m247.01913,-21.206904a19.91093,19.91093 0 0 1 0,39.82186l0,-19.91093l0,-19.91093z" id="path3133"/>
   <path fill="none" stroke="#c6c6c6" stroke-width="4.14811" d="m675.10409,-31.162364l0,59.73278" id="path3135"/>
   <path fill="none" stroke="#c6c6c6" stroke-width="4.14811" d="m675.10409,-1.295974l-4.97774,0" id="path3137"/>
   <path fill="none" stroke="#c6c6c6" stroke-width="4.14811" d="m662.65976,-8.762574a7.4666,7.4666 0 1 0 0,14.9332a7.4666,7.4666 0 0 0 0,-14.9332z" id="path3139"/>
   <path fill="none" stroke="#c6c6c6" stroke-width="4.14811" stroke-linecap="round" d="m436.17295,-218.316184l0,-29.86639" id="path3141"/>
   <path fill="none" stroke="#c6c6c6" stroke-width="4.14746" stroke-linecap="round" d="m436.17295,245.590016l0,-29.85703" id="path3143"/>
   <path fill="none" stroke="#c6c6c6" stroke-width="4.14811" d="m714.92594,-110.806074l-9.95546,0" id="path3145"/>
   <path fill="none" stroke="#c6c6c6" stroke-width="4.14811" d="m714.92594,108.214136l-9.95546,0" id="path3147"/>
   <path fill="none" stroke="#c6c6c6" stroke-width="4.14811" d="m645.23769,-80.939684l0,-9.95546" id="path3149"/>
   <path fill="none" stroke="#c6c6c6" stroke-width="4.14811" d="m635.28223,-80.939684l0,-9.95546" id="path3151"/>
   <path fill="none" stroke="#c6c6c6" stroke-width="4.14811" d="m605.41584,-80.939684l0,-9.95546" id="path3153"/>
   <path fill="none" stroke="#c6c6c6" stroke-width="4.14811" d="m575.54944,-80.939684l0,-9.95546" id="path3155"/>
   <path fill="none" stroke="#c6c6c6" stroke-width="4.14811" d="m645.23769,78.347736l0,9.95547" id="path3157"/>
   <path fill="none" stroke="#c6c6c6" stroke-width="4.14811" d="m635.28223,78.347736l0,9.95547" id="path3159"/>
   <path fill="none" stroke="#c6c6c6" stroke-width="4.14811" d="m605.41584,78.347736l0,9.95547" id="path3161"/>
   <path fill="none" stroke="#c6c6c6" stroke-width="4.14811" d="m575.54944,78.347736l0,9.95547" id="path3163"/>
   <path fill="none" stroke="#c6c6c6" stroke-width="4.14811" d="m-220.92594,245.898006l0,-494.45472l467.90681,0l0,494.45472l-467.90681,0" id="path3117-2"/>
   <path fill="none" stroke="#c6c6c6" stroke-width="4.029536" d="m-220.98523,245.790936l0,-28.15937l139.49507,0l0,28.15937l-139.49507,0z" id="path3119-7"/>
   <path fill="none" stroke="#c6c6c6" stroke-width="4.01749" d="m-220.99125,-220.284254l0,-27.98886l139.50711,0l0,27.98886l-139.50711,0z" id="path3121-7"/>
   <path fill="none" stroke="#c6c6c6" stroke-width="4.14811" d="m-80.71982,217.690856a236.44227,236.44227 0 0 0 0,-438.04042" id="path3123-9"/>
   <path fill="none" stroke="#c6c6c6" stroke-width="4.14811" d="m-220.92594,78.314356l189.15381,0l0,-159.28742l-189.15381,0l0,159.28742z" id="path3125-3"/>
   <path fill="none" stroke="#c6c6c6" stroke-width="4.14811" d="m-220.92594,58.403426l189.15381,0l0,-119.46556l-189.15381,0l0,119.46556z" id="path3127-1"/>
   <path fill="none" stroke="#c6c6c6" stroke-width="4.14811" d="m-31.77213,58.403426a59.73278,59.73278 0 0 0 0,-119.46556a59.73278,59.73278 0 1 0 0,119.46556z" id="path3129-9"/>
   <path fill="none" stroke="#c6c6c6" stroke-width="4.14811" d="m246.98087,58.403426a59.73278,59.73278 0 1 1 0,-119.46556l0,59.73278l0,59.73278z" id="path3131-8"/>
   <path fill="none" stroke="#c6c6c6" stroke-width="4.14811" d="m246.98087,18.581576a19.91093,19.91093 0 1 1 0,-39.82186l0,19.91093l0,19.91093z" id="path3133-6"/>
   <path fill="none" stroke="#c6c6c6" stroke-width="4.14811" d="m-181.10409,28.537036l0,-59.73278" id="path3135-5"/>
   <path fill="none" stroke="#c6c6c6" stroke-width="4.14811" d="m-181.10409,-1.329354l4.97773,0" id="path3137-0"/>
   <path fill="none" stroke="#c6c6c6" stroke-width="4.14811" d="m-168.65976,6.137246a7.4666,7.4666 0 0 0 0,-14.9332a7.4666,7.4666 0 1 0 0,14.9332z" id="path3139-2"/>
   <path fill="none" stroke="#c6c6c6" stroke-width="4.140863" stroke-linecap="round" d="m57.82705,245.559636l0,-29.76211" id="path3141-8"/>
   <path fill="none" stroke="#c6c6c6" stroke-width="4.148" stroke-linecap="round" stroke-miterlimit="4" d="m57.82705,-218.349564l0,-29.86639" id="path3143-6"/>
   <path fill="none" stroke="#c6c6c6" stroke-width="4.14811" d="m-220.92594,108.180746l9.95546,0" id="path3145-0"/>
   <path fill="none" stroke="#c6c6c6" stroke-width="4.14811" d="m-220.92594,-110.839454l9.95546,0" id="path3147-2"/>
   <path fill="none" stroke="#c6c6c6" stroke-width="4.14811" d="m-151.2377,78.314356l0,9.95547" id="path3149-4"/>
   <path fill="none" stroke="#c6c6c6" stroke-width="4.14811" d="m-141.28223,78.314356l0,9.95547" id="path3151-8"/>
   <path fill="none" stroke="#c6c6c6" stroke-width="4.14811" d="m-111.41584,78.314356l0,9.95547" id="path3153-6"/>
   <path fill="none" stroke="#c6c6c6" stroke-width="4.14811" d="m-81.54945,78.314356l0,9.95547" id="path3155-5"/>
   <path fill="none" stroke="#c6c6c6" stroke-width="4.14811" d="m-151.2377,-80.973064l0,-9.95547" id="path3157-0"/>
   <path fill="none" stroke="#c6c6c6" stroke-width="4.14811" d="m-141.28223,-80.973064l0,-9.95547" id="path3159-9"/>
   <path fill="none" stroke="#c6c6c6" stroke-width="4.14811" d="m-111.41584,-80.973064l0,-9.95547" id="path3161-0"/>
   <path fill="none" stroke="#c6c6c6" stroke-width="4.14811" d="m-81.54945,-80.973064l0,-9.95547" id="path3163-0"/>
  </g>
 </g>
</svg>