<?xml version="1.0" standalone="no"?>
<!DOCTYPE svg PUBLIC "-//W3C//DTD SVG 20010904//EN"
 "http://www.w3.org/TR/2001/REC-SVG-20010904/DTD/svg10.dtd">
<svg version="1.0" xmlns="http://www.w3.org/2000/svg"
 width="1600.000000pt" height="1067.000000pt" viewBox="0 0 1600.000000 1067.000000"
 preserveAspectRatio="xMidYMid meet">
<metadata>
Created by potrace 1.14, written by Peter Selinger 2001-2017
</metadata>
<g transform="translate(0.000000,1067.000000) scale(0.100000,-0.100000)"
fill="#000000" stroke="none">
<path d="M970 10250 c0 -73 4 -120 10 -120 6 0 10 25 10 55 l0 55 6985 0 6985
0 0 -55 c0 -42 3 -55 15 -55 13 0 15 20 15 120 0 100 -2 120 -15 120 -12 0
-15 -13 -15 -61 0 -52 -2 -60 -16 -55 -20 8 -13933 8 -13945 0 -5 -3 -9 22 -9
55 0 34 -4 61 -10 61 -6 0 -10 -47 -10 -120z"/>
<path d="M900 5515 l0 -4345 3065 0 3065 0 0 -340 0 -340 48 0 47 0 0 337 0
338 868 3 868 2 -1 -302 c0 -167 0 -320 0 -340 0 -38 0 -38 40 -38 l40 0 0
340 0 340 3055 0 3055 0 0 4345 0 4345 -7075 0 -7075 0 0 -4345z m4510 4025
l0 -230 40 0 40 0 0 230 0 230 1225 0 1225 0 0 -1559 0 -1560 -57 -6 c-189
-22 -343 -71 -484 -156 -452 -269 -659 -812 -502 -1314 31 -99 90 -218 154
-311 59 -85 201 -225 287 -283 151 -102 359 -178 515 -188 l87 -6 0 -1563 0
-1564 -1225 0 -1225 0 0 230 0 230 -40 0 -40 0 0 -230 0 -230 -2210 0 -2210 0
0 1175 0 1174 73 3 72 3 0 45 0 45 -72 3 -73 3 0 204 0 205 555 0 555 0 0 -90
0 -90 45 0 45 0 0 90 0 90 55 0 55 0 0 -90 0 -90 45 0 45 0 0 90 0 90 260 0
260 0 0 -90 0 -90 45 0 45 0 0 90 0 90 255 0 255 0 0 -90 0 -90 45 0 45 0 0
90 0 90 280 0 280 0 0 150 0 150 34 0 c57 0 192 29 282 61 l84 30 123 -92 c67
-51 128 -96 135 -102 8 -6 12 -6 12 1 0 5 -56 52 -125 103 -69 51 -125 96
-125 100 0 4 15 13 33 20 130 54 352 258 446 410 93 152 153 333 167 505 4 49
12 92 18 97 8 5 8 9 0 15 -6 4 -14 39 -18 77 -43 433 -344 818 -750 959 -38
14 -72 30 -76 38 -4 7 -20 87 -35 178 -16 91 -32 169 -37 174 -13 15 -10 -6
22 -183 16 -91 28 -166 26 -169 -3 -2 -28 1 -58 7 -29 5 -77 13 -105 16 l-53
7 0 159 0 159 -227 2 -228 3 619 638 618 637 67 -72 c528 -570 880 -1255 1020
-1988 21 -112 46 -324 56 -482 l7 -97 31 -3 32 -3 3 -67 3 -66 -30 -7 c-17 -4
-33 -11 -37 -16 -3 -5 -10 -67 -15 -137 -17 -235 -46 -417 -100 -637 -312
-1261 -1249 -2384 -2376 -2849 l-112 -46 -1236 0 -1235 0 0 -40 0 -40 1248 0
1248 0 90 36 c236 94 533 259 761 422 1099 787 1803 2111 1803 3391 0 862
-314 1721 -892 2446 -57 72 -144 172 -193 223 l-88 93 49 50 c26 27 44 49 39
49 -5 0 -28 -19 -52 -42 l-42 -41 -63 57 c-35 31 -106 95 -158 142 -314 283
-726 538 -1126 698 l-141 56 -1256 0 -1257 0 0 235 0 235 2210 0 2210 0 0
-230z m5030 0 l0 -230 45 0 45 0 0 230 0 230 2215 0 2215 0 0 -235 0 -235
-1237 -2 -1238 -3 -132 -54 c-1015 -412 -1862 -1288 -2267 -2344 -101 -262
-181 -577 -221 -867 -22 -159 -31 -582 -16 -762 62 -727 338 -1449 798 -2093
321 -449 738 -846 1187 -1127 154 -97 417 -233 564 -291 l92 -37 1235 0 1235
0 0 -230 0 -230 -119 0 -120 0 0 203 c0 251 0 242 -7 234 -4 -3 -6 -103 -6
-221 l0 -216 -2089 0 -2089 0 0 230 0 230 -45 0 -45 0 0 -230 0 -230 -1205 0
-1205 0 2 1562 3 1563 72 7 c241 24 491 145 668 323 230 231 349 539 332 860
-8 152 -36 265 -100 409 l-31 68 25 22 c13 11 45 38 69 58 72 59 41 52 -34 -7
l-69 -55 -48 72 c-104 159 -253 292 -426 381 -81 42 -92 51 -98 80 -24 117
-38 167 -45 167 -4 0 1 -41 12 -91 11 -50 17 -93 15 -96 -3 -2 -34 4 -69 15
-55 17 -121 30 -245 48 l-33 5 0 1559 0 1560 1205 0 1205 0 0 -230z m3775
-290 l-2 -30 374 0 373 0 0 -840 0 -840 -85 0 -85 0 0 -45 0 -45 85 0 85 0 0
-230 0 -230 -435 0 -435 0 0 1116 c0 614 -1 1119 -4 1121 -2 2 -8 -10 -14 -26
-7 -19 -7 -31 -1 -31 5 0 9 -410 9 -1090 l0 -1090 -140 0 -140 0 0 95 0 95
-45 0 -45 0 0 -95 0 -95 -65 0 -65 0 0 96 0 95 -41 -3 -41 -3 -2 -90 -1 -90
-242 -3 -243 -2 0 95 0 95 -50 0 -50 0 0 -95 0 -95 -240 0 -239 0 -3 93 -3 92
-47 3 -48 3 0 -95 0 -96 -123 0 -122 0 -53 35 c-58 40 -70 35 -20 -7 l33 -27
-132 -1 -133 0 0 -165 c0 -188 12 -168 -106 -180 -50 -5 -180 -36 -256 -61
-12 -4 -43 30 -123 136 -59 78 -109 139 -112 136 -3 -3 40 -66 96 -141 55 -74
101 -138 100 -142 0 -5 -26 -20 -57 -35 -220 -105 -435 -334 -528 -562 -68
-166 -77 -220 -78 -431 -1 -178 1 -196 26 -288 112 -398 413 -694 808 -792 52
-13 125 -27 163 -30 l67 -7 0 -154 0 -154 275 0 275 0 0 -90 0 -90 50 0 50 0
0 90 0 90 240 0 240 0 0 -90 0 -90 50 0 50 0 0 90 0 90 246 0 245 0 -3 -90 -3
-90 43 0 42 0 0 90 0 90 70 0 70 0 0 -90 0 -90 40 0 40 0 0 90 0 90 580 0 580
0 0 -220 0 -220 -85 0 -85 0 0 -45 0 -45 85 0 85 0 0 -895 0 -895 -1221 0
-1221 0 -101 41 c-474 191 -971 542 -1350 954 -573 622 -943 1349 -1092 2145
-47 251 -67 637 -46 891 39 481 174 956 397 1401 72 143 195 353 273 466 28
41 51 76 51 80 0 3 -9 16 -21 28 l-21 22 86 114 c47 62 104 133 125 158 l40
45 22 -22 23 -22 160 163 c188 191 290 280 480 422 262 197 576 374 854 482
l132 52 700 0 700 0 0 30 0 30 143 0 144 0 -2 -30z m-10676 -54 c454 -165 881
-437 1320 -843 l74 -68 -199 -205 c-110 -113 -392 -404 -627 -648 -421 -434
-429 -442 -468 -442 l-39 0 0 95 0 95 -45 0 -45 0 0 -95 0 -95 -255 0 -255 0
0 95 0 95 -45 0 -45 0 0 -95 0 -95 -260 0 -260 0 0 95 0 95 -45 0 -45 0 0 -95
0 -95 -55 0 -55 0 0 95 0 95 -45 0 -45 0 0 -95 0 -95 -260 0 -260 0 -1 23 -2
22 -4 -22 -4 -23 -290 0 -289 0 0 200 0 200 75 0 75 0 0 45 0 45 -75 0 -75 0
0 870 0 870 1241 0 1242 0 66 -24z m-1968 -2328 l2 -43 6 40 6 40 1003 3 c551
1 1002 -1 1002 -5 0 -4 -55 -63 -122 -130 l-123 -123 -203 0 -203 0 2 110 c2
74 -2 115 -9 122 -14 14 -15 8 -12 -135 l2 -97 -669 2 -668 3 -6 30 -7 30 -1
-32 -1 -33 -290 0 -290 0 0 130 0 130 290 0 290 0 1 -42z m2499 -82 l0 -125
-52 -6 c-29 -3 -186 -5 -348 -3 l-295 3 124 128 124 127 223 0 224 0 0 -124z
m8142 88 c27 -20 52 -34 55 -30 4 4 -2 13 -13 20 -66 48 -90 45 340 46 l398 0
-7 -27 c-4 -16 -6 -72 -6 -125 l2 -98 -561 0 -560 0 0 125 0 125 151 0 151 0
50 -36z m1866 -91 l3 -123 -536 0 -535 0 0 94 c0 51 -3 108 -6 125 l-7 31 539
-2 539 -3 3 -122z m882 2 l0 -125 -435 0 -435 0 0 125 0 125 435 0 435 0 0
-125z m-12180 -180 l0 -35 70 0 70 0 -2 -60 c-1 -33 1 -63 5 -67 14 -14 21 9
19 67 l-2 60 160 0 c88 0 160 -4 160 -8 0 -5 -34 -41 -76 -81 -41 -40 -73 -75
-71 -77 7 -8 57 19 57 30 0 6 28 39 62 73 l62 63 292 0 c197 0 293 -3 296 -11
2 -7 23 -7 68 0 36 6 77 11 93 11 l27 0 0 -500 c0 -493 0 -500 -20 -500 -11 0
-20 -4 -20 -10 0 -5 9 -10 20 -10 20 0 20 -7 20 -518 l0 -518 -67 8 c-44 5
-69 4 -71 -2 -2 -6 -50 -10 -114 -10 -101 0 -110 1 -103 18 22 50 18 56 -47
89 -35 18 -80 42 -101 55 l-38 23 -19 -25 c-11 -14 -20 -30 -20 -37 0 -13 92
-72 161 -102 l44 -20 -457 0 -458 -1 0 -35 0 -36 -62 3 c-63 3 -63 3 -66 36
l-3 32 -830 0 -829 0 0 1030 0 1030 290 0 290 0 2 -32 1 -33 4 33 4 32 535 0
534 0 0 35 0 35 65 0 65 0 0 -35z m1560 -57 c25 -6 48 -13 52 -17 9 -8 57
-252 63 -320 2 -28 8 -59 14 -68 9 -17 10 -17 17 1 4 10 2 33 -4 50 -13 35
-65 326 -60 332 2 2 40 -13 83 -32 109 -49 112 -49 120 -25 3 12 12 21 19 21
25 0 159 -103 237 -183 79 -80 80 -81 60 -100 -19 -19 -19 -20 26 -85 55 -80
83 -136 118 -232 50 -139 73 -320 40 -320 -22 0 -18 -17 5 -23 15 -4 19 -11
15 -34 -2 -15 -7 -58 -10 -94 -27 -321 -253 -642 -562 -798 -34 -17 -69 -31
-78 -31 -14 0 -216 147 -240 175 -10 12 -49 35 -60 35 -3 0 2 -11 11 -25 9
-14 21 -25 27 -25 8 0 184 -128 222 -162 6 -6 5 -12 -5 -18 -23 -14 -139 -40
-217 -48 l-73 -8 0 516 c0 507 0 515 20 528 12 7 25 25 31 39 5 15 61 110 123
212 62 102 162 266 221 364 59 98 112 183 119 190 14 13 28 57 18 57 -11 0
-42 -33 -42 -46 0 -16 -449 -758 -461 -762 -5 -2 -9 -10 -9 -17 0 -8 -4 -17
-10 -20 -7 -4 -10 164 -10 496 l0 502 68 -7 c37 -4 87 -12 112 -18z m7438
-1005 l-3 -1028 -45 3 c-136 10 -303 63 -429 136 -447 263 -630 814 -428 1293
93 220 297 431 513 530 54 24 56 25 69 7 7 -11 67 -91 134 -179 66 -88 121
-164 121 -170 0 -5 12 -18 26 -29 l26 -19 -7 24 c-4 13 -13 29 -19 34 -14 11
-276 353 -276 360 0 14 208 62 278 64 l42 1 -2 -1027z m201 1016 c45 -7 67 -7
75 1 7 7 163 10 468 10 l459 0 -1 -42 c0 -24 2 -55 5 -69 6 -23 3 -27 -25 -33
-18 -3 -48 -6 -66 -6 l-34 0 0 -85 0 -85 45 0 45 0 0 39 c0 22 6 42 13 45 10
5 10 7 0 12 -7 3 -13 19 -13 35 0 28 1 29 50 29 28 0 50 5 50 10 0 6 -12 10
-26 10 -24 0 -26 3 -20 31 3 17 6 49 6 70 l0 39 533 -2 532 -3 0 -120 0 -119
-95 -16 c-52 -9 -119 -26 -148 -38 -116 -48 -238 -146 -308 -248 -21 -30 -42
-51 -48 -47 -6 3 -27 19 -47 35 -39 29 -49 34 -49 20 0 -5 22 -24 49 -42 l49
-34 -22 -45 c-21 -41 -54 -143 -69 -211 -42 -185 6 -431 120 -608 89 -139 271
-276 397 -298 17 -3 49 -9 71 -14 65 -15 357 -12 378 4 19 14 25 96 7 96 -5 0
-10 -7 -10 -16 0 -14 -22 -15 -197 -12 -197 4 -198 4 -278 36 -255 105 -418
361 -419 657 0 51 8 124 18 167 9 43 14 83 10 89 -4 7 -3 9 3 6 5 -3 21 17 34
46 54 119 167 249 270 309 59 35 208 80 250 76 l34 -3 3 -190 c1 -104 0 -199
-2 -210 -4 -15 -14 -20 -44 -21 -50 -2 -111 -34 -150 -78 l-30 -35 -53 40
c-47 35 -69 46 -69 35 0 -2 25 -22 55 -45 l54 -41 -16 -37 c-35 -80 -18 -215
35 -275 19 -23 14 -28 -128 -151 -58 -50 -111 -98 -117 -108 -12 -16 -10 -16
17 -6 16 6 31 16 32 22 2 7 52 55 113 108 103 91 110 96 130 82 32 -24 85 -46
129 -54 l41 -6 6 -75 5 -75 2 75 2 76 59 12 c67 14 138 69 171 131 14 27 20
32 25 20 3 -8 4 -126 3 -262 l-3 -247 43 0 42 0 0 620 0 620 -42 0 -43 0 3
-255 c1 -141 -1 -255 -6 -255 -5 0 -13 10 -19 23 -30 66 -114 127 -196 142
l-37 7 0 214 0 214 130 0 130 0 0 35 0 35 -130 0 -130 0 0 125 0 125 435 0
435 0 0 -1030 0 -1030 -1208 0 -1209 0 -32 41 c-40 49 -55 44 -17 -6 l27 -35
-138 0 -138 1 80 42 c90 48 125 69 125 77 0 3 -10 18 -23 33 l-22 28 -100 -52
c-55 -29 -102 -54 -104 -56 -3 -2 3 -19 12 -38 l17 -35 -110 0 c-69 0 -110 4
-110 10 0 10 -66 7 -127 -6 l-23 -4 0 1030 0 1030 28 0 c15 0 56 -5 91 -11z
m-4039 -292 l0 -294 -52 -12 c-86 -19 -155 -57 -222 -121 -150 -144 -185 -345
-95 -536 55 -117 204 -231 324 -250 l45 -6 0 -290 0 -289 -62 6 c-441 45 -797
350 -915 784 -23 85 -26 114 -26 256 0 140 3 172 26 257 92 346 336 610 676
732 78 28 200 54 264 55 l37 1 0 -293z m275 266 c39 -8 98 -26 131 -40 l61
-24 18 -87 c9 -48 19 -101 20 -119 2 -17 9 -42 16 -55 12 -21 13 -21 17 -4 2
11 -1 35 -7 55 -27 86 -49 214 -41 237 l9 23 73 -40 c96 -53 169 -108 251
-191 62 -63 82 -98 57 -98 -26 0 -17 -31 25 -94 25 -37 45 -73 44 -79 0 -7
-103 -94 -228 -193 l-228 -182 -22 52 c-11 28 -43 78 -69 111 l-48 59 165 217
c91 120 171 218 177 218 11 1 29 49 22 56 -5 5 -44 -29 -46 -40 0 -5 -76 -108
-167 -227 l-165 -217 -56 34 c-31 19 -87 42 -125 52 l-69 17 0 294 0 294 58
-7 c31 -3 89 -13 127 -22z m721 -600 c14 -32 37 -101 52 -153 24 -86 27 -111
27 -265 0 -186 -14 -260 -77 -407 -75 -178 -222 -356 -380 -461 -132 -87 -315
-153 -470 -171 l-58 -6 0 289 0 288 54 11 c56 11 147 52 179 80 16 14 16 17 1
33 -16 18 -14 21 25 64 23 25 49 60 58 79 14 31 19 33 40 25 13 -5 26 -9 27
-9 14 0 30 104 31 193 l0 107 224 180 c124 99 228 180 233 180 5 0 20 -26 34
-57z m-996 -423 l0 -380 -27 6 c-60 13 -154 65 -196 106 -24 24 -57 71 -73
104 -26 54 -29 68 -29 164 0 94 3 111 27 161 49 99 153 184 255 208 21 5 39 9
41 10 1 1 2 -170 2 -379z m210 337 c43 -21 65 -38 64 -49 -2 -22 -136 -197
-151 -198 -7 0 -13 -6 -13 -14 0 -8 -3 -22 -7 -32 -6 -16 -4 -16 20 2 14 10
27 24 27 30 0 6 27 47 61 90 34 44 67 87 74 98 13 18 15 17 40 -10 36 -41 72
-103 83 -146 l10 -36 -64 -51 c-35 -29 -71 -54 -78 -57 -8 -3 -22 -16 -31 -30
-15 -24 -15 -24 12 -12 16 7 31 17 35 23 4 6 34 33 67 59 l61 47 0 -57 c0
-167 -100 -304 -259 -354 -35 -11 -65 -20 -67 -20 -2 0 -4 79 -4 176 l0 176
48 -40 c26 -22 70 -61 97 -87 71 -66 109 -86 79 -40 -9 14 -20 25 -25 25 -5 0
-52 37 -104 82 l-95 81 0 194 0 193 28 -6 c15 -3 56 -20 92 -37z m5928 -139
c2 -53 -1 -88 -7 -88 -6 0 -6 -11 1 -31 6 -16 13 -28 16 -25 3 3 4 57 3 121
-2 114 -2 115 21 115 64 -1 157 -68 193 -140 35 -69 40 -117 21 -185 -28 -93
-131 -185 -209 -185 l-27 0 0 122 c0 67 -3 119 -6 115 -3 -3 -7 -59 -7 -124
l-2 -118 -35 4 c-40 3 -100 32 -120 56 -11 14 -6 22 41 65 30 27 59 49 66 50
13 0 38 39 30 47 -7 6 -47 -16 -47 -26 0 -4 -27 -32 -61 -61 -57 -50 -61 -51
-74 -34 -103 135 -53 321 105 393 25 12 56 20 70 19 24 -3 25 -5 28 -90z
m-10008 -1390 l0 -113 -1540 0 -1540 0 0 113 0 112 1540 0 1540 0 0 -112z
m10280 92 c0 -11 5 -20 10 -20 6 0 10 9 10 20 0 20 7 20 295 20 l295 0 0 -112
0 -113 -1547 2 -1548 3 -3 110 -3 110 1246 0 c1238 0 1245 0 1245 -20z"/>
<path d="M5286 8597 c-24 -18 -18 -75 10 -94 18 -12 24 -11 47 8 22 17 27 18
27 5 0 -32 28 -15 37 22 l10 37 8 -37 c10 -53 31 -47 45 13 15 62 6 77 -11 18
l-12 -44 -9 35 c-15 54 -25 57 -39 9 l-13 -44 -9 41 c-8 37 -12 41 -42 42 -18
1 -40 -4 -49 -11z"/>
<path d="M4060 3868 l0 -63 -1497 3 c-824 2 -1513 0 -1532 -3 -21 -4 -30 -10
-24 -16 10 -10 3010 -13 3037 -3 14 5 16 -3 16 -50 0 -31 5 -56 10 -56 6 0 10
48 10 125 0 77 -4 125 -10 125 -6 0 -10 -27 -10 -62z"/>
<path d="M4130 3665 c0 -220 2 -255 15 -255 13 0 15 35 15 255 0 220 -2 255
-15 255 -13 0 -15 -35 -15 -255z"/>
<path d="M1018 3530 c-14 -4 -19 -8 -11 -13 13 -8 3083 -10 3091 -2 3 3 3 7 0
10 -7 7 -3051 11 -3080 5z"/>
<path d="M1016 1571 c-18 -7 -18 -8 5 -14 32 -9 4316 -9 4348 0 23 6 23 7 5
14 -25 10 -4333 10 -4358 0z"/>
<path d="M12538 9480 c-14 -4 -19 -8 -11 -13 18 -11 2382 -9 2401 3 15 8 15 9
-3 10 -199 4 -2370 3 -2387 0z"/>
<path d="M12668 7628 c-3 -222 1 -284 16 -260 4 7 7 113 6 237 l-1 225 278 -2
278 -3 2 -210 c2 -266 2 -257 16 -224 8 18 11 94 9 243 l-3 216 -299 0 -299 0
-3 -222z"/>
<path d="M12917 7423 c-4 -3 -7 -28 -7 -54 l0 -48 -227 -1 c-132 0 -232 -5
-237 -10 -7 -7 -6 -10 2 -10 7 0 112 -1 235 -1 l222 0 5 -41 c3 -23 11 -43 18
-46 9 -3 12 23 12 107 0 102 -5 123 -23 104z"/>
<path d="M12990 7320 c0 -67 4 -110 10 -110 6 0 10 20 10 44 l0 45 240 0 240
0 0 -45 c0 -24 5 -44 10 -44 6 0 10 43 10 110 0 115 -17 155 -22 53 -2 -38 -7
-57 -15 -56 -6 1 -113 3 -237 3 l-226 1 0 55 c0 30 -4 54 -10 54 -6 0 -10 -43
-10 -110z"/>
<path d="M14340 3853 l0 -48 -1227 3 c-676 2 -1248 0 -1272 -3 -144 -21 66
-25 1228 -25 689 0 1257 2 1262 6 5 3 9 -23 9 -60 0 -52 3 -66 15 -66 13 0 15
20 15 120 0 100 -2 120 -15 120 -11 0 -15 -12 -15 -47z"/>
<path d="M1848 7613 c-2 -126 -1 -237 1 -247 12 -55 20 36 20 237 l1 217 345
0 345 0 1 -212 c0 -117 4 -222 8 -232 17 -44 23 15 22 225 l-2 219 321 -2 322
-3 -2 -202 c0 -111 2 -214 6 -229 15 -60 23 14 23 234 l1 222 -704 0 -705 0
-3 -227z"/>
<path d="M2090 7373 l0 -58 -237 3 c-153 2 -240 -1 -247 -8 -7 -7 -6 -10 5
-10 7 -1 119 -1 247 -1 l232 0 0 -45 c0 -32 4 -44 13 -41 8 2 12 33 12 107 0
74 -4 105 -12 108 -10 3 -13 -12 -13 -55z"/>
<path d="M2370 7320 c0 -91 3 -110 15 -110 11 0 15 12 15 44 l0 45 255 0 255
0 0 -45 c0 -32 4 -44 13 -42 8 3 13 37 15 111 2 91 0 107 -13 107 -12 0 -15
-12 -15 -57 l0 -58 -255 0 -255 0 0 58 c0 44 -3 57 -15 57 -12 0 -15 -19 -15
-110z"/>
<path d="M2980 7320 c0 -67 4 -110 10 -110 6 0 10 20 10 44 l0 45 250 0 250 0
0 -45 c0 -32 4 -44 13 -41 8 2 12 33 12 107 0 74 -4 105 -12 108 -10 3 -13
-13 -13 -58 0 -51 -3 -61 -15 -56 -21 8 -446 9 -467 1 -16 -6 -18 0 -18 54 0
34 -4 61 -10 61 -6 0 -10 -43 -10 -110z"/>
<path d="M3590 6524 c-36 -20 -84 -50 -108 -66 l-42 -29 25 -34 26 -33 52 35
c29 19 73 46 100 59 26 13 47 27 47 29 0 8 -29 75 -32 75 -2 0 -32 -16 -68
-36z"/>
<path d="M3000 6335 l0 -85 45 0 45 0 0 85 0 85 -45 0 -45 0 0 -85z"/>
<path d="M1822 6391 c-2 -18 -6 -22 -19 -16 -25 10 -173 6 -192 -5 -19 -11
-17 -11 117 -12 89 0 93 -1 90 -22 -3 -20 -8 -21 -118 -21 l-115 0 0 27 c-1
15 -4 30 -8 34 -4 4 -7 -13 -7 -38 0 -27 5 -49 13 -52 10 -5 10 -7 0 -12 -8
-3 -12 -23 -11 -52 1 -37 2 -40 5 -14 l4 32 163 0 c132 0 178 -4 247 -21 102
-26 193 -74 186 -98 -2 -10 -48 -89 -102 -178 l-97 -160 -37 13 c-95 34 -211
3 -285 -76 -25 -27 -46 -56 -46 -65 0 -8 -4 -15 -10 -15 -6 0 -10 94 -10 263
l0 263 -40 -4 -40 -4 -2 -619 -3 -619 42 0 43 0 2 258 3 257 22 -42 c29 -53
85 -99 147 -119 92 -31 226 -5 280 55 11 12 23 21 28 21 15 0 227 -164 227
-177 1 -6 15 -14 31 -18 17 -4 30 -10 30 -13 0 -4 -21 -33 -45 -64 -79 -99
-231 -197 -332 -213 -21 -3 -65 -10 -98 -15 -33 -6 -113 -10 -177 -10 l-118 0
0 -35 0 -35 178 0 c119 0 194 5 230 14 28 8 52 13 52 11 0 -12 146 66 203 108
130 96 262 298 283 434 3 21 10 57 15 80 5 23 9 77 8 120 -1 68 -6 112 -25
223 -9 49 -57 156 -102 229 -51 84 -174 211 -218 226 -26 9 -29 15 -32 63 -2
37 -7 52 -18 52 -7 0 -14 -4 -14 -10 0 -5 5 -10 10 -10 6 0 10 -14 10 -31 0
-36 7 -36 -110 7 -52 19 -98 28 -150 30 l-75 3 -6 48 c-3 26 -7 37 -7 24z
m495 -383 c58 -75 98 -151 129 -243 24 -73 27 -93 26 -225 0 -137 -1 -149 -31
-230 -17 -47 -29 -91 -26 -98 2 -7 1 -10 -5 -7 -5 3 -17 -9 -26 -27 l-17 -32
-20 25 c-11 13 -23 23 -26 22 -4 -1 -59 38 -123 87 l-116 89 24 47 c13 26 24
57 24 68 0 53 11 66 51 66 22 0 39 5 39 10 0 6 -20 10 -45 10 -34 0 -45 4 -45
16 0 34 -53 126 -91 156 -21 17 -39 35 -39 39 0 4 45 82 101 173 l101 166 38
-30 c20 -16 55 -53 77 -82z m-388 -229 c17 -6 31 -13 31 -17 0 -9 -53 -96 -67
-110 -7 -7 -13 -22 -13 -33 0 -18 2 -19 15 -5 9 8 29 41 46 73 17 32 34 61 38
65 13 14 79 -51 105 -104 30 -59 32 -78 11 -78 -22 0 -18 -17 5 -23 16 -4 18
-11 13 -43 -3 -22 -15 -58 -25 -81 l-20 -42 -74 56 c-41 30 -74 59 -74 63 0 4
-11 11 -25 14 -14 4 -25 13 -25 21 0 12 15 15 70 15 40 0 70 4 70 10 0 6 -30
10 -70 10 l-71 0 2 91 c1 56 -3 95 -10 102 -8 8 -11 7 -11 -3 -1 -39 -1 -438
0 -455 1 -19 1 -19 11 -1 7 10 11 61 10 115 l-1 96 20 -25 c11 -14 20 -21 20
-17 0 5 28 -13 62 -40 34 -26 66 -51 72 -55 15 -10 -30 -54 -81 -79 -84 -40
-212 -20 -281 44 -67 62 -95 162 -72 258 11 44 24 64 69 109 31 31 72 61 91
67 47 15 120 16 159 2z"/>
<path d="M3262 6257 c-27 -29 -122 -168 -122 -179 0 -8 53 -38 68 -38 5 0 13
10 19 23 6 13 34 53 62 90 28 38 51 72 51 77 0 5 -13 18 -29 29 l-28 20 -21
-22z"/>
<path d="M1256 6121 c-8 -13 -8 -1153 0 -1175 5 -13 -2 -16 -45 -16 -28 0 -51
-4 -51 -10 0 -6 43 -10 110 -10 67 0 110 4 110 10 0 6 -25 10 -55 10 l-54 0 0
596 c-1 329 -3 599 -5 601 -2 2 -7 0 -10 -6z"/>
<path d="M3041 5835 c-18 -67 -35 -181 -28 -198 4 -11 18 -17 40 -17 34 0 35
1 41 53 4 28 14 78 22 111 8 32 11 63 7 67 -5 5 -23 11 -40 15 -30 6 -32 4
-42 -31z"/>
<path d="M3032 5413 c-20 -4 -22 -9 -17 -36 16 -82 39 -174 49 -194 10 -20 13
-20 48 -6 34 14 36 16 26 41 -5 15 -18 65 -28 112 -18 90 -22 94 -78 83z"/>
<path d="M2708 5114 c-5 -4 -8 -119 -8 -256 l0 -248 -832 0 c-458 0 -842 0
-852 0 -14 0 -17 -3 -10 -10 7 -7 292 -10 853 -10 l842 0 -2 -42 c-1 -24 1
-54 6 -68 7 -23 8 -24 15 -5 4 11 5 42 2 68 l-5 48 127 -2 c70 0 130 2 133 5
15 15 -15 19 -132 17 l-125 -2 -2 256 c-2 141 -6 253 -10 249z"/>
<path d="M3198 4992 c-16 -10 -28 -22 -28 -29 0 -13 110 -162 135 -183 13 -11
20 -9 44 14 l29 28 -69 86 c-38 47 -69 89 -69 94 0 11 -11 9 -42 -10z"/>
<path d="M3000 4785 l0 -85 45 0 45 0 0 85 0 85 -45 0 -45 0 0 -85z"/>
<path d="M12254 6518 c-9 -18 -13 -34 -8 -35 10 -4 150 -87 177 -106 16 -10
22 -8 44 18 l26 29 -33 28 c-36 29 -161 98 -179 98 -6 0 -18 -14 -27 -32z"/>
<path d="M12618 6254 l-26 -26 52 -72 c28 -39 58 -83 67 -96 l17 -25 36 19 36
19 -22 36 c-28 48 -120 171 -128 171 -3 0 -17 -12 -32 -26z"/>
<path d="M14666 6114 c-11 -29 -7 -1147 4 -1158 7 -7 10 -5 10 4 2 192 -1
1164 -3 1167 -3 2 -7 -4 -11 -13z"/>
<path d="M12829 5859 l-27 -10 14 -55 c8 -30 18 -80 22 -112 l7 -57 40 0 40 0
-4 54 c-5 82 -33 186 -51 188 -8 1 -27 -3 -41 -8z"/>
<path d="M12831 5358 c-7 -34 -19 -85 -27 -112 -15 -53 -14 -56 29 -74 27 -12
29 -11 43 25 17 41 51 200 43 207 -2 2 -20 7 -40 11 l-36 7 -12 -64z"/>
<path d="M13030 5261 c0 -8 42 -34 58 -37 8 -1 57 -21 110 -44 l97 -41 137
-207 138 -207 -418 -52 c-229 -29 -426 -51 -437 -48 -11 2 -31 -2 -44 -9 l-24
-13 28 -6 c16 -2 36 -1 44 3 9 5 120 21 246 35 452 53 617 74 623 79 3 3 -60
104 -140 223 l-145 218 -107 45 c-58 24 -106 47 -106 51 0 4 -13 9 -30 11 -16
3 -30 2 -30 -1z"/>
<path d="M12670 4965 c-17 -24 -49 -66 -71 -91 l-41 -47 31 -31 31 -31 25 30
c55 65 124 168 119 176 -3 5 -18 16 -34 24 -29 15 -29 15 -60 -30z"/>
<path d="M12860 4785 l0 -85 45 0 45 0 0 85 0 85 -45 0 -45 0 0 -85z"/>
<path d="M440 9753 c-2 -2204 1 -8468 5 -8471 3 -3 7 -3 10 0 4 3 7 6667 5
8471 0 9 -4 17 -10 17 -5 0 -10 -8 -10 -17z"/>
<path d="M657 6994 c-13 -14 6 -24 43 -24 l40 0 0 -1407 c0 -773 2 -1408 4
-1410 2 -2 8 10 14 26 7 19 7 33 1 36 -13 8 -12 2695 1 2695 6 0 6 9 0 26 -14
35 -14 34 25 34 24 0 35 5 35 15 0 12 -15 15 -78 15 -43 0 -82 -3 -85 -6z"/>
<path d="M15180 6940 c0 -33 0 -2756 0 -2774 0 -14 3 -17 10 -10 7 7 10 478
10 1394 0 916 -3 1387 -10 1394 -7 7 -10 5 -10 -4z"/>
</g>
</svg>
