<svg width="499" height="470" xmlns="http://www.w3.org/2000/svg" preserveAspectRatio="xMinYMin">

 <g>
  <title>background</title>
  <rect fill="none" id="canvas_background" height="472" width="501" y="-1" x="-1"/>
 </g>
 <g>
  <title>Layer 1</title>
  <rect fill="#ffffff" fill-opacity="0.6" id="rect3165" class="detail-box" ry="2" rx="2" height="40" width="70" y="-54.000008" x="10"/>
  <g id="layer1"/>
  <g transform="rotate(90 249.50096130371094,-1.6809654235839846) matrix(1.0106613798236346,0,0,1.0128059895157144,2.3543873327505525,-3.8835593058081286) " id="g3915">
   <path fill="none" stroke="#c6c6c6" stroke-width="4.14811" d="m712.465371,-245.035869l0,494.45471l-467.90681,0l0,-494.45471l467.90681,0" id="path3117"/>
   <path fill="none" stroke="#c6c6c6" stroke-width="4.029536" d="m712.524661,-244.928809l0,28.15937l-139.49507,0l0,-28.15937l139.49507,0z" id="path3119"/>
   <path fill="none" stroke="#c6c6c6" stroke-width="4.01749" d="m712.530681,221.146381l0,27.98886l-139.50711,0l0,-27.98886l139.50711,0z" id="path3121"/>
   <path fill="none" stroke="#c6c6c6" stroke-width="4.14811" d="m572.259251,-216.828729a236.44227,236.44227 0 0 0 0,438.04042" id="path3123"/>
   <path fill="none" stroke="#c6c6c6" stroke-width="4.14811" d="m712.465371,-77.452229l-189.15382,0l0,159.28742l189.15382,0l0,-159.28742z" id="path3125"/>
   <path fill="none" stroke="#c6c6c6" stroke-width="4.14811" d="m712.465371,-57.541299l-189.15382,0l0,119.46557l189.15382,0l0,-119.46557z" id="path3127"/>
   <path fill="none" stroke="#c6c6c6" stroke-width="4.14811" d="m523.311551,-57.541299a59.73278,59.73278 0 1 0 0,119.46557a59.73278,59.73278 0 0 0 0,-119.46557z" id="path3129"/>
   <path fill="none" stroke="#c6c6c6" stroke-width="4.14811" d="m244.558561,-57.541299a59.73278,59.73278 0 0 1 0,119.46557l0,-59.73279l0,-59.73278z" id="path3131"/>
   <path fill="none" stroke="#c6c6c6" stroke-width="4.14811" d="m244.558561,-17.719449a19.91093,19.91093 0 0 1 0,39.82186l0,-19.91093l0,-19.91093z" id="path3133"/>
   <path fill="none" stroke="#c6c6c6" stroke-width="4.14811" d="m672.643521,-27.674909l0,59.73278" id="path3135"/>
   <path fill="none" stroke="#c6c6c6" stroke-width="4.14811" d="m672.643521,2.191481l-4.97774,0" id="path3137"/>
   <path fill="none" stroke="#c6c6c6" stroke-width="4.14811" d="m660.199191,-5.275119a7.4666,7.4666 0 1 0 0,14.9332a7.4666,7.4666 0 0 0 0,-14.9332z" id="path3139"/>
   <path fill="none" stroke="#c6c6c6" stroke-width="4.14811" stroke-linecap="round" d="m433.712381,-214.828729l0,-29.86639" id="path3141"/>
   <path fill="none" stroke="#c6c6c6" stroke-width="4.14746" stroke-linecap="round" d="m433.712381,249.077471l0,-29.85703" id="path3143"/>
   <path fill="none" stroke="#c6c6c6" stroke-width="4.14811" d="m712.465371,-107.318619l-9.95546,0" id="path3145"/>
   <path fill="none" stroke="#c6c6c6" stroke-width="4.14811" d="m712.465371,111.701591l-9.95546,0" id="path3147"/>
   <path fill="none" stroke="#c6c6c6" stroke-width="4.14811" d="m642.777121,-77.452229l0,-9.95546" id="path3149"/>
   <path fill="none" stroke="#c6c6c6" stroke-width="4.14811" d="m632.821661,-77.452229l0,-9.95546" id="path3151"/>
   <path fill="none" stroke="#c6c6c6" stroke-width="4.14811" d="m602.955271,-77.452229l0,-9.95546" id="path3153"/>
   <path fill="none" stroke="#c6c6c6" stroke-width="4.14811" d="m573.088871,-77.452229l0,-9.95546" id="path3155"/>
   <path fill="none" stroke="#c6c6c6" stroke-width="4.14811" d="m642.777121,81.835191l0,9.95547" id="path3157"/>
   <path fill="none" stroke="#c6c6c6" stroke-width="4.14811" d="m632.821661,81.835191l0,9.95547" id="path3159"/>
   <path fill="none" stroke="#c6c6c6" stroke-width="4.14811" d="m602.955271,81.835191l0,9.95547" id="path3161"/>
   <path fill="none" stroke="#c6c6c6" stroke-width="4.14811" d="m573.088871,81.835191l0,9.95547" id="path3163"/>
   <path fill="none" stroke="#c6c6c6" stroke-width="4.14811" d="m-223.386509,249.385461l0,-494.45472l467.90681,0l0,494.45472l-467.90681,0" id="path3117-2"/>
   <path fill="none" stroke="#c6c6c6" stroke-width="4.029536" d="m-223.445799,249.278391l0,-28.15937l139.49507,0l0,28.15937l-139.49507,0z" id="path3119-7"/>
   <path fill="none" stroke="#c6c6c6" stroke-width="4.01749" d="m-223.451819,-216.796799l0,-27.98886l139.50711,0l0,27.98886l-139.50711,0z" id="path3121-7"/>
   <path fill="none" stroke="#c6c6c6" stroke-width="4.14811" d="m-83.180389,221.178311a236.44227,236.44227 0 0 0 0,-438.04042" id="path3123-9"/>
   <path fill="none" stroke="#c6c6c6" stroke-width="4.14811" d="m-223.386509,81.801811l189.15381,0l0,-159.28742l-189.15381,0l0,159.28742z" id="path3125-3"/>
   <path fill="none" stroke="#c6c6c6" stroke-width="4.14811" d="m-223.386509,61.890881l189.15381,0l0,-119.46556l-189.15381,0l0,119.46556z" id="path3127-1"/>
   <path fill="none" stroke="#c6c6c6" stroke-width="4.14811" d="m-34.232699,61.890881a59.73278,59.73278 0 0 0 0,-119.46556a59.73278,59.73278 0 1 0 0,119.46556z" id="path3129-9"/>
   <path fill="none" stroke="#c6c6c6" stroke-width="4.14811" d="m244.520301,61.890881a59.73278,59.73278 0 1 1 0,-119.46556l0,59.73278l0,59.73278z" id="path3131-8"/>
   <path fill="none" stroke="#c6c6c6" stroke-width="4.14811" d="m244.520301,22.069031a19.91093,19.91093 0 1 1 0,-39.82186l0,19.91093l0,19.91093z" id="path3133-6"/>
   <path fill="none" stroke="#c6c6c6" stroke-width="4.14811" d="m-183.564659,32.024491l0,-59.73278" id="path3135-5"/>
   <path fill="none" stroke="#c6c6c6" stroke-width="4.14811" d="m-183.564659,2.158101l4.97773,0" id="path3137-0"/>
   <path fill="none" stroke="#c6c6c6" stroke-width="4.14811" d="m-171.120329,9.624701a7.4666,7.4666 0 0 0 0,-14.9332a7.4666,7.4666 0 1 0 0,14.9332z" id="path3139-2"/>
   <path fill="none" stroke="#c6c6c6" stroke-width="4.140863" stroke-linecap="round" d="m55.366481,249.047091l0,-29.76211" id="path3141-8"/>
   <path fill="none" stroke="#c6c6c6" stroke-width="4.148" stroke-linecap="round" stroke-miterlimit="4" d="m55.366481,-214.862109l0,-29.86639" id="path3143-6"/>
   <path fill="none" stroke="#c6c6c6" stroke-width="4.14811" d="m-223.386509,111.668201l9.95546,0" id="path3145-0"/>
   <path fill="none" stroke="#c6c6c6" stroke-width="4.14811" d="m-223.386509,-107.351999l9.95546,0" id="path3147-2"/>
   <path fill="none" stroke="#c6c6c6" stroke-width="4.14811" d="m-153.698269,81.801811l0,9.95547" id="path3149-4"/>
   <path fill="none" stroke="#c6c6c6" stroke-width="4.14811" d="m-143.742799,81.801811l0,9.95547" id="path3151-8"/>
   <path fill="none" stroke="#c6c6c6" stroke-width="4.14811" d="m-113.876409,81.801811l0,9.95547" id="path3153-6"/>
   <path fill="none" stroke="#c6c6c6" stroke-width="4.14811" d="m-84.010019,81.801811l0,9.95547" id="path3155-5"/>
   <path fill="none" stroke="#c6c6c6" stroke-width="4.14811" d="m-153.698269,-77.485609l0,-9.95547" id="path3157-0"/>
   <path fill="none" stroke="#c6c6c6" stroke-width="4.14811" d="m-143.742799,-77.485609l0,-9.95547" id="path3159-9"/>
   <path fill="none" stroke="#c6c6c6" stroke-width="4.14811" d="m-113.876409,-77.485609l0,-9.95547" id="path3161-0"/>
   <path fill="none" stroke="#c6c6c6" stroke-width="4.14811" d="m-84.010019,-77.485609l0,-9.95547" id="path3163-0"/>
  </g>
 </g>
</svg>